PathFileType	4	(X/Y/Z)	C:\Users\86182\Documents\cortex\Trimmed_M1_H2.trc
DataRate	CameraRate	NumFrames	NumMarkers	Units	OrigDataRate	OrigDataStartFrame	OrigNumFrames
100.00	100.00	      115	2	mm	100.00	1	      1001
Frame#	Time	gripper			box			
		X1	Y1	Z1	X2	Y2	Z2	

1	0.000	201.58141	195.83275	193.03217	204.79739	194.39029	57.86964	
2	0.010	201.58575	195.83615	193.03479	204.80589	194.38803	57.87607	
3	0.020	201.58922	195.83890	193.03687	204.81241	194.38626	57.88153	
4	0.030	201.59142	195.84071	193.03821	204.81627	194.38515	57.88584	
5	0.040	201.59261	195.84177	193.03896	204.81813	194.38455	57.88947	
6	0.050	201.59322	195.84241	193.03940	204.81914	194.38411	57.89281	
7	0.060	201.59357	195.84290	193.03973	204.81999	194.38356	57.89589	
8	0.070	201.59387	195.84326	193.04010	204.82054	194.38295	57.89856	
9	0.080	201.59412	195.84344	193.04048	204.82021	194.38255	57.90064	
10	0.090	201.59421	195.84335	193.04074	204.81895	194.38260	57.90195	
11	0.100	201.59407	195.84302	193.04079	204.81746	194.38303	57.90234	
12	0.110	201.59370	195.84250	193.04057	204.81662	194.38361	57.90182	
13	0.120	201.59320	195.84187	193.04016	204.81691	194.38408	57.90076	
14	0.130	201.59274	195.84129	193.03976	204.81834	194.38431	57.89973	
15	0.140	201.59259	195.84091	193.03960	204.82080	194.38422	57.89915	
16	0.150	201.59286	195.84087	193.03972	204.82411	194.38377	57.89907	
17	0.160	201.59361	195.84120	193.04018	204.82822	194.38293	57.89925	
18	0.170	201.59480	195.84192	193.04094	204.83282	194.38173	57.89939	
19	0.180	201.59627	195.84291	193.04189	204.83751	194.38028	57.89923	
20	0.190	201.59773	195.84395	193.04286	204.84172	194.37883	57.89859	
21	0.200	201.59897	195.84486	193.04375	204.84505	194.37756	57.89717	
22	0.210	201.59996	195.84567	193.04445	204.84738	194.37654	57.89461	
23	0.220	201.60080	195.84642	193.04498	204.84888	194.37578	57.89086	
24	0.230	201.60135	195.84705	193.04520	204.84969	194.37532	57.88643	
25	0.240	201.60136	195.84737	193.04500	204.84967	194.37534	57.88227	
26	0.250	201.60080	195.84732	193.04440	204.84866	194.37593	57.87936	
27	0.260	201.59984	195.84698	193.04358	204.84679	194.37708	57.87822	
28	0.270	201.59868	195.84645	193.04269	204.84450	194.37854	57.87861	
29	0.280	201.59758	195.84584	193.04192	204.84241	194.37997	57.87978	
30	0.290	201.59688	195.84537	193.04144	204.84106	194.38107	57.88099	
31	0.300	201.59674	195.84520	193.04140	204.84058	194.38174	57.88181	
32	0.310	201.59700	195.84521	193.04166	204.84056	194.38208	57.88206	
33	0.320	201.59738	195.84521	193.04202	204.84048	194.38225	57.88188	
34	0.330	201.59769	195.84514	193.04239	204.83998	194.38235	57.88173	
35	0.340	201.59793	195.84502	193.04271	204.83893	194.38248	57.88213	
36	0.350	201.59827	195.84505	193.04301	204.83737	194.38271	57.88312	
37	0.360	201.59897	195.84546	193.04349	204.83554	194.38306	57.88437	
38	0.370	201.60013	195.84627	193.04417	204.83388	194.38347	57.88570	
39	0.380	201.60146	195.84727	193.04497	204.83289	194.38382	57.88745	
40	0.390	201.60248	195.84807	193.04559	204.83296	194.38391	57.89012	
41	0.400	201.60297	195.84850	193.04588	204.83394	194.38374	57.89371	
42	0.410	201.60307	195.84860	193.04593	204.83519	194.38345	57.89766	
43	0.420	201.60300	195.84851	193.04585	204.83603	194.38324	57.90129	
44	0.430	201.60260	195.84816	193.04556	204.83626	194.38327	57.90414	
45	0.440	201.60165	195.84743	193.04498	204.83614	194.38351	57.90600	
46	0.450	201.60014	195.84631	193.04411	204.83609	194.38390	57.90673	
47	0.460	201.59830	195.84497	193.04312	204.83615	194.38437	57.90633	
48	0.470	201.59651	195.84364	193.04224	204.83607	194.38487	57.90496	
49	0.480	201.59502	195.84256	193.04155	204.83566	194.38530	57.90296	
50	0.490	201.59380	195.84171	193.04100	204.83479	194.38554	57.90071	
51	0.500	201.59273	195.84108	193.04041	204.83351	194.38550	57.89853	
52	0.510	201.59178	195.84062	193.03975	204.83208	194.38521	57.89647	
53	0.520	201.59096	195.84027	193.03908	204.83083	194.38474	57.89423	
54	0.530	201.59029	195.83994	193.03850	204.82993	194.38417	57.89162	
55	0.540	201.58978	195.83961	193.03810	204.82945	194.38359	57.88881	
56	0.550	201.58949	195.83940	193.03787	204.82938	194.38301	57.88629	
57	0.560	201.58958	195.83943	193.03790	204.82951	194.38248	57.88482	
58	0.570	201.59027	195.83992	193.03824	204.82945	194.38205	57.88519	
59	0.580	201.59163	195.84087	193.03899	204.82881	194.38182	57.88770	
60	0.590	201.59351	195.84218	193.04005	204.82748	194.38188	57.89180	
61	0.600	201.59558	195.84364	193.04126	204.82582	194.38225	57.89626	
62	0.610	201.59755	195.84506	193.04237	204.82475	194.38269	57.89991	
63	0.620	201.59908	195.84624	193.04321	204.82536	194.38298	57.90221	
64	0.630	201.59995	195.84695	193.04362	204.82808	194.38295	57.90318	
65	0.640	201.60004	195.84714	193.04356	204.83243	194.38263	57.90316	
66	0.650	201.59961	195.84694	193.04320	204.83740	194.38208	57.90272	
67	0.660	201.59912	195.84660	193.04285	204.84225	194.38136	57.90223	
68	0.670	201.59908	195.84647	193.04280	204.84647	194.38058	57.90172	
69	0.680	201.59966	195.84668	193.04320	204.84949	194.37982	57.90109	
70	0.690	201.60063	195.84712	193.04387	204.85060	194.37929	57.90051	
71	0.700	201.60152	195.84752	193.04453	204.84935	194.37917	57.90025	
72	0.710	201.60184	195.84753	193.04488	204.84598	194.37952	57.90041	
73	0.720	201.60129	195.84694	193.04472	204.84122	194.38033	57.90095	
74	0.730	201.59996	195.84583	193.04411	204.83601	194.38139	57.90158	
75	0.740	201.59830	195.84450	193.04327	204.83122	194.38255	57.90184	
76	0.750	201.59679	195.84334	193.04248	204.82750	194.38358	57.90129	
77	0.760	201.59587	195.84265	193.04195	204.82503	194.38431	57.89981	
78	0.770	201.59566	195.84248	193.04176	204.82338	194.38481	57.89753	
79	0.780	201.59583	195.84258	193.04181	204.82204	194.38522	57.89458	
80	0.790	201.59595	195.84261	193.04185	204.82103	194.38557	57.89108	
81	0.800	201.59576	195.84239	193.04181	204.82069	194.38573	57.88728	
82	0.810	201.59531	195.84195	193.04164	204.82129	194.38564	57.88383	
83	0.820	201.59471	195.84143	193.04140	204.82292	194.38525	57.88157	
84	0.830	201.59421	195.84102	193.04120	204.82584	194.38458	57.88091	
85	0.840	201.59407	195.84088	193.04121	204.83031	194.38364	57.88182	
86	0.850	201.59439	195.84106	193.04152	204.83618	194.38248	57.88423	
87	0.860	201.59512	195.84158	193.04205	204.84261	194.38121	57.88787	
88	0.870	201.59631	195.84248	193.04276	204.84882	194.38000	57.89209	
89	0.880	201.59795	195.84375	193.04358	204.85449	194.37888	57.89588	
90	0.890	201.59985	195.84525	193.04446	204.85919	194.37788	57.89824	
91	0.900	201.60170	195.84671	193.04527	204.86208	194.37718	57.89870	
92	0.910	201.60320	195.84792	193.04590	204.86273	194.37689	57.89747	
93	0.920	201.60402	195.84866	193.04617	204.86150	194.37698	57.89503	
94	0.930	201.60394	195.84880	193.04596	204.85915	194.37737	57.89202	
95	0.940	201.60291	195.84827	193.04524	204.85660	194.37785	57.88912	
96	0.950	201.60115	195.84723	193.04417	204.85452	194.37822	57.88682	
97	0.960	201.59909	195.84602	193.04301	204.85327	194.37831	57.88527	
98	0.970	201.59703	195.84488	193.04193	204.85298	194.37807	57.88445	
99	0.980	201.59500	195.84386	193.04099	204.85352	194.37766	57.88425	
100	0.990	201.59294	195.84283	193.04007	204.85431	194.37738	57.88435	
101	1.000	201.59085	195.84169	193.03922	204.85474	194.37749	57.88416	
102	1.010	201.58908	195.84055	193.03853	204.85420	194.37804	57.88330	
103	1.020	201.58804	195.83971	193.03821	204.85252	194.37900	57.88205	
104	1.030	201.58798	195.83945	193.03833	204.85010	194.38011	57.88096	
105	1.040	201.58888	195.83980	193.03885	204.84767	194.38109	57.88038	
106	1.050	201.59058	195.84067	193.03970	204.84561	194.38181	57.88036	
107	1.060	201.59296	195.84195	193.04074	204.84393	194.38219	57.88087	
108	1.070	201.59590	195.84364	193.04178	204.84279	194.38225	57.88205	
109	1.080	201.59923	195.84569	193.04266	204.84247	194.38197	57.88416	
110	1.090	201.60281	195.84795	193.04332	204.84323	194.38132	57.88722	
111	1.100	201.60652	195.85030	193.04375	204.84515	194.38019	57.89071	
112	1.110	201.61006	195.85248	193.04395	204.84830	194.37849	57.89377	
113	1.120	201.61295	195.85419	193.04401	204.85291	194.37604	57.89542	
114	1.130	201.61443	195.85503	193.04413	204.85915	194.37259	57.89475	
115	1.140	201.61331	195.85442	193.04463	204.86670	194.36821	57.89118	
